<svg width="72" height="72" viewBox="0 0 72 72" fill="none" xmlns="http://www.w3.org/2000/svg">
<circle cx="36" cy="36" r="34.5" stroke="#029489" stroke-width="3"/>
<mask id="path-2-inside-1" fill="white">
<path d="M49.5477 28.5506H46.7055L47.5618 18.7185C47.5634 18.7007 47.5637 18.6832 47.5638 18.6656C47.5638 18.6641 47.5639 18.6627 47.5639 18.6612C47.5639 18.6609 47.5639 18.6608 47.5639 18.6605C47.5639 18.3929 47.4025 18.157 47.1652 18.0545C47.1632 18.0536 47.1612 18.0526 47.1592 18.0517C47.1445 18.0455 47.1292 18.0402 47.1139 18.0351C47.1082 18.0332 47.1027 18.0309 47.097 18.0292C47.0844 18.0254 47.0716 18.0224 47.0588 18.0193C47.0498 18.0172 47.0412 18.0146 47.0321 18.0129C47.0209 18.0107 47.0092 18.0093 46.9978 18.0076C46.987 18.006 46.9764 18.0041 46.9656 18.0032C46.9637 18.003 46.9621 18.0026 46.9602 18.0025C46.9486 18.0014 46.9371 18.0016 46.9256 18.0011C46.9178 18.0009 46.9102 18 46.9025 18H46.8942C46.8935 18 46.8928 18 46.8921 18H33.3689C33.0039 18 32.7076 18.2963 32.7076 18.6613C32.7076 19.0255 33.0039 19.3226 33.3689 19.3226H46.1816L44.8656 34.4333C44.8654 34.4344 44.8654 34.4356 44.8652 34.4367L44.5332 38.2494H21.5544L21.9387 34.2818H26.314C26.6793 34.2818 26.9753 33.9857 26.9753 33.6205C26.9753 33.2553 26.6793 32.9592 26.314 32.9592H22.0669L22.8785 24.5832H29.842C30.2073 24.5832 30.5033 24.2871 30.5033 23.9219C30.5033 23.5567 30.2073 23.2606 29.842 23.2606H23.0067L23.3883 19.3226H30.7237C31.0879 19.3226 31.385 19.0255 31.385 18.6613C31.385 18.2963 31.0879 18 30.7237 18H22.7881C22.7878 18 22.7875 18.0001 22.7871 18.0001C22.4765 18 22.2071 18.2187 22.1419 18.5218C22.1415 18.524 22.1407 18.5261 22.1402 18.5283C22.1369 18.5448 22.1347 18.5617 22.1325 18.5786C22.1318 18.584 22.1307 18.5891 22.1302 18.5945C22.1301 18.5955 22.1298 18.5965 22.1297 18.5976L21.6779 23.2606H13.6613C13.296 23.2606 13 23.5567 13 23.9219C13 24.2871 13.296 24.5832 13.6613 24.5832H21.5497L20.7382 32.9592H18.3787C18.0134 32.9592 17.7174 33.2553 17.7174 33.6205C17.7174 33.9857 18.0134 34.2818 18.3787 34.2818H20.6101L20.1681 38.8422C20.168 38.8429 20.168 38.8436 20.168 38.8443L19.4847 45.8963C19.4846 45.8971 19.4845 45.8979 19.4844 45.8986L19.4842 45.9012C19.4833 45.9104 19.4834 45.9194 19.4829 45.9285C19.4822 45.9407 19.481 45.9526 19.481 45.965C19.481 45.9655 19.4811 45.966 19.4811 45.9666C19.4811 45.9836 19.4823 46.0004 19.4836 46.0172C19.4841 46.0225 19.4839 46.028 19.4845 46.0333C19.4863 46.0504 19.4892 46.0672 19.4923 46.084C19.4932 46.0889 19.4936 46.094 19.4946 46.0988C19.4971 46.1115 19.5008 46.1238 19.5041 46.1362C19.5064 46.1449 19.5082 46.1538 19.5109 46.1624C19.5117 46.1648 19.5127 46.167 19.5135 46.1695C19.5455 46.2679 19.5998 46.3563 19.6707 46.4284C19.672 46.4297 19.673 46.4312 19.6744 46.4324C19.6814 46.4395 19.6891 46.4459 19.6965 46.4526C19.7421 46.4943 19.7936 46.5298 19.8499 46.5576C19.8616 46.5634 19.8732 46.5695 19.8852 46.5745C19.8888 46.5761 19.8927 46.5771 19.8964 46.5786C19.913 46.5852 19.9296 46.5915 19.9468 46.5969C19.9484 46.5973 19.9499 46.5976 19.9515 46.5981C19.9711 46.6039 19.9908 46.6091 20.011 46.6132C20.0137 46.6137 20.0164 46.6139 20.0189 46.6144C20.0382 46.6181 20.0575 46.6211 20.0771 46.6231C20.0776 46.6231 20.0779 46.6232 20.0784 46.6233C20.1001 46.6254 20.1216 46.6264 20.1429 46.6264C20.1432 46.6264 20.1435 46.6263 20.1439 46.6263H23.0878C23.4129 49.091 25.526 51 28.0782 51C30.6302 51 32.7432 49.091 33.0683 46.6263H43.6755C44.0007 49.091 46.1137 51 48.6657 51C51.2177 51 53.331 49.091 53.6562 46.6263H56.6008C56.6013 46.6263 56.6018 46.6264 56.6022 46.6264C56.6243 46.6264 56.646 46.6251 56.6675 46.623C56.6714 46.6226 56.6751 46.6218 56.6789 46.6214C56.6961 46.6194 56.7132 46.617 56.73 46.6136C56.7372 46.6122 56.7442 46.6103 56.7513 46.6086C56.7643 46.6056 56.7773 46.6024 56.79 46.5987C56.7987 46.5961 56.8071 46.5931 56.8155 46.5902C56.8264 46.5865 56.8372 46.5826 56.8479 46.5783C56.857 46.5747 56.8658 46.5707 56.8747 46.5667C56.8844 46.5622 56.8941 46.5577 56.9035 46.5528C56.9125 46.5482 56.9212 46.5435 56.9298 46.5385C56.9389 46.5332 56.9479 46.5278 56.9568 46.5221C56.9651 46.5168 56.9733 46.5115 56.9813 46.5058C56.9903 46.4995 56.9988 46.4929 57.0076 46.4862C57.0148 46.4805 57.0221 46.4749 57.0292 46.4689C57.0382 46.4612 57.0468 46.4532 57.0554 46.445C57.0614 46.4392 57.0677 46.4336 57.0735 46.4276C57.0827 46.4183 57.0914 46.4084 57.1001 46.3984C57.1048 46.393 57.1097 46.3878 57.1142 46.3824C57.1239 46.3704 57.1327 46.358 57.1415 46.3456C57.1445 46.3413 57.1478 46.3372 57.1507 46.3328C57.1615 46.3167 57.1716 46.3001 57.181 46.283C57.1817 46.2819 57.1824 46.281 57.1828 46.2798C57.1928 46.2615 57.202 46.2427 57.2102 46.2233C57.2125 46.2177 57.2142 46.212 57.2164 46.2065C57.2218 46.1928 57.2271 46.1791 57.2316 46.1649C57.2345 46.1558 57.2366 46.1463 57.2392 46.1371C57.2421 46.126 57.2452 46.1151 57.2477 46.1039C57.2499 46.094 57.2513 46.0837 57.2529 46.0736C57.2544 46.0647 57.2564 46.0559 57.2575 46.0469C57.2856 45.8222 57.8034 41.6676 58.0347 38.9811C58.035 38.9785 58.035 38.9759 58.0353 38.9733C58.1019 38.1989 58.1446 37.5468 58.1446 37.1475C58.1446 32.4073 54.288 28.5506 49.5477 28.5506ZM46.5902 29.8734H49.2957L48.9501 33.8409H46.2447L46.5902 29.8734ZM28.0783 49.6773C26.0312 49.6773 24.3658 48.0119 24.3658 45.9649C24.3658 43.9178 26.0313 42.2524 28.0783 42.2524C30.1254 42.2524 31.7908 43.9178 31.7908 45.9649C31.7908 48.0119 30.1254 49.6773 28.0783 49.6773ZM48.6657 49.6773C46.6187 49.6773 44.9534 48.0119 44.9534 45.9649C44.9534 43.9178 46.6188 42.2524 48.6657 42.2524C50.7129 42.2524 52.3783 43.9178 52.3783 45.9649C52.3783 48.0119 50.7129 49.6773 48.6657 49.6773ZM56.0165 45.3033H53.6564C53.3313 42.8384 51.2182 40.9294 48.6659 40.9294C46.1138 40.9294 44.0007 42.8385 43.6757 45.3033H33.0686C32.7436 42.8384 30.6305 40.9294 28.0783 40.9294C25.5262 40.9294 23.4129 42.8385 23.0879 45.3033H20.8709L21.4263 39.5717H45.1392V39.572C45.1395 39.572 45.1398 39.572 45.1401 39.572C45.1623 39.572 45.1842 39.5708 45.2059 39.5686C45.21 39.5682 45.2139 39.5674 45.218 39.5668C45.2353 39.5648 45.2525 39.5623 45.2694 39.559C45.2767 39.5575 45.2839 39.5555 45.2911 39.5537C45.3043 39.5505 45.3175 39.5474 45.3304 39.5436C45.3392 39.5409 45.3476 39.5377 45.3562 39.5347C45.3673 39.5309 45.3784 39.5271 45.3891 39.5227C45.3984 39.5189 45.4073 39.5146 45.4163 39.5104C45.4261 39.5059 45.4359 39.5014 45.4453 39.4965C45.4543 39.4917 45.4631 39.4866 45.472 39.4815C45.4811 39.4762 45.4901 39.4708 45.4989 39.4652C45.5075 39.4596 45.5156 39.4538 45.5238 39.448C45.5325 39.4418 45.541 39.4355 45.5494 39.4288C45.557 39.4228 45.5645 39.4165 45.5719 39.4101C45.5803 39.4028 45.5885 39.3954 45.5964 39.3878C45.6031 39.3813 45.6098 39.3747 45.6164 39.3679C45.6243 39.3596 45.632 39.3511 45.6395 39.3423C45.6455 39.3355 45.6513 39.3286 45.6569 39.3215C45.6642 39.3123 45.6712 39.3028 45.6781 39.2931C45.6833 39.2859 45.6883 39.2787 45.6932 39.2713C45.6997 39.2613 45.7059 39.2511 45.7118 39.2407C45.7163 39.2329 45.7208 39.2252 45.7249 39.2172C45.7305 39.2068 45.7352 39.1962 45.7402 39.1856C45.7441 39.177 45.7481 39.1686 45.7516 39.1598C45.7559 39.1494 45.7596 39.1388 45.7633 39.1281C45.7666 39.1186 45.77 39.1092 45.773 39.0995C45.7759 39.0893 45.7782 39.0788 45.7809 39.0684C45.7835 39.0579 45.7863 39.0475 45.7883 39.0368C45.7903 39.0264 45.7916 39.0158 45.7931 39.0053C45.7947 38.9943 45.7966 38.9836 45.7976 38.9725C45.7978 38.9709 45.7982 38.9694 45.7983 38.9678L46.1297 35.1631H49.5475C51.5736 35.1631 52.4874 36.2129 53.4548 37.3244C54.253 38.2415 55.1442 39.2648 56.659 39.5144C56.4666 41.5485 56.1556 44.1599 56.0165 45.3033ZM56.772 38.1891C55.7894 37.9888 55.1847 37.298 54.4523 36.4564C53.5363 35.4041 52.418 34.1198 50.2742 33.8805L50.6163 29.9526C54.1224 30.4711 56.822 33.4997 56.822 37.1477C56.822 37.3956 56.8034 37.7557 56.772 38.1891Z"/>
</mask>
<path d="M49.5477 28.5506H46.7055L47.5618 18.7185C47.5634 18.7007 47.5637 18.6832 47.5638 18.6656C47.5638 18.6641 47.5639 18.6627 47.5639 18.6612C47.5639 18.6609 47.5639 18.6608 47.5639 18.6605C47.5639 18.3929 47.4025 18.157 47.1652 18.0545C47.1632 18.0536 47.1612 18.0526 47.1592 18.0517C47.1445 18.0455 47.1292 18.0402 47.1139 18.0351C47.1082 18.0332 47.1027 18.0309 47.097 18.0292C47.0844 18.0254 47.0716 18.0224 47.0588 18.0193C47.0498 18.0172 47.0412 18.0146 47.0321 18.0129C47.0209 18.0107 47.0092 18.0093 46.9978 18.0076C46.987 18.006 46.9764 18.0041 46.9656 18.0032C46.9637 18.003 46.9621 18.0026 46.9602 18.0025C46.9486 18.0014 46.9371 18.0016 46.9256 18.0011C46.9178 18.0009 46.9102 18 46.9025 18H46.8942C46.8935 18 46.8928 18 46.8921 18H33.3689C33.0039 18 32.7076 18.2963 32.7076 18.6613C32.7076 19.0255 33.0039 19.3226 33.3689 19.3226H46.1816L44.8656 34.4333C44.8654 34.4344 44.8654 34.4356 44.8652 34.4367L44.5332 38.2494H21.5544L21.9387 34.2818H26.314C26.6793 34.2818 26.9753 33.9857 26.9753 33.6205C26.9753 33.2553 26.6793 32.9592 26.314 32.9592H22.0669L22.8785 24.5832H29.842C30.2073 24.5832 30.5033 24.2871 30.5033 23.9219C30.5033 23.5567 30.2073 23.2606 29.842 23.2606H23.0067L23.3883 19.3226H30.7237C31.0879 19.3226 31.385 19.0255 31.385 18.6613C31.385 18.2963 31.0879 18 30.7237 18H22.7881C22.7878 18 22.7875 18.0001 22.7871 18.0001C22.4765 18 22.2071 18.2187 22.1419 18.5218C22.1415 18.524 22.1407 18.5261 22.1402 18.5283C22.1369 18.5448 22.1347 18.5617 22.1325 18.5786C22.1318 18.584 22.1307 18.5891 22.1302 18.5945C22.1301 18.5955 22.1298 18.5965 22.1297 18.5976L21.6779 23.2606H13.6613C13.296 23.2606 13 23.5567 13 23.9219C13 24.2871 13.296 24.5832 13.6613 24.5832H21.5497L20.7382 32.9592H18.3787C18.0134 32.9592 17.7174 33.2553 17.7174 33.6205C17.7174 33.9857 18.0134 34.2818 18.3787 34.2818H20.6101L20.1681 38.8422C20.168 38.8429 20.168 38.8436 20.168 38.8443L19.4847 45.8963C19.4846 45.8971 19.4845 45.8979 19.4844 45.8986L19.4842 45.9012C19.4833 45.9104 19.4834 45.9194 19.4829 45.9285C19.4822 45.9407 19.481 45.9526 19.481 45.965C19.481 45.9655 19.4811 45.966 19.4811 45.9666C19.4811 45.9836 19.4823 46.0004 19.4836 46.0172C19.4841 46.0225 19.4839 46.028 19.4845 46.0333C19.4863 46.0504 19.4892 46.0672 19.4923 46.084C19.4932 46.0889 19.4936 46.094 19.4946 46.0988C19.4971 46.1115 19.5008 46.1238 19.5041 46.1362C19.5064 46.1449 19.5082 46.1538 19.5109 46.1624C19.5117 46.1648 19.5127 46.167 19.5135 46.1695C19.5455 46.2679 19.5998 46.3563 19.6707 46.4284C19.672 46.4297 19.673 46.4312 19.6744 46.4324C19.6814 46.4395 19.6891 46.4459 19.6965 46.4526C19.7421 46.4943 19.7936 46.5298 19.8499 46.5576C19.8616 46.5634 19.8732 46.5695 19.8852 46.5745C19.8888 46.5761 19.8927 46.5771 19.8964 46.5786C19.913 46.5852 19.9296 46.5915 19.9468 46.5969C19.9484 46.5973 19.9499 46.5976 19.9515 46.5981C19.9711 46.6039 19.9908 46.6091 20.011 46.6132C20.0137 46.6137 20.0164 46.6139 20.0189 46.6144C20.0382 46.6181 20.0575 46.6211 20.0771 46.6231C20.0776 46.6231 20.0779 46.6232 20.0784 46.6233C20.1001 46.6254 20.1216 46.6264 20.1429 46.6264C20.1432 46.6264 20.1435 46.6263 20.1439 46.6263H23.0878C23.4129 49.091 25.526 51 28.0782 51C30.6302 51 32.7432 49.091 33.0683 46.6263H43.6755C44.0007 49.091 46.1137 51 48.6657 51C51.2177 51 53.331 49.091 53.6562 46.6263H56.6008C56.6013 46.6263 56.6018 46.6264 56.6022 46.6264C56.6243 46.6264 56.646 46.6251 56.6675 46.623C56.6714 46.6226 56.6751 46.6218 56.6789 46.6214C56.6961 46.6194 56.7132 46.617 56.73 46.6136C56.7372 46.6122 56.7442 46.6103 56.7513 46.6086C56.7643 46.6056 56.7773 46.6024 56.79 46.5987C56.7987 46.5961 56.8071 46.5931 56.8155 46.5902C56.8264 46.5865 56.8372 46.5826 56.8479 46.5783C56.857 46.5747 56.8658 46.5707 56.8747 46.5667C56.8844 46.5622 56.8941 46.5577 56.9035 46.5528C56.9125 46.5482 56.9212 46.5435 56.9298 46.5385C56.9389 46.5332 56.9479 46.5278 56.9568 46.5221C56.9651 46.5168 56.9733 46.5115 56.9813 46.5058C56.9903 46.4995 56.9988 46.4929 57.0076 46.4862C57.0148 46.4805 57.0221 46.4749 57.0292 46.4689C57.0382 46.4612 57.0468 46.4532 57.0554 46.445C57.0614 46.4392 57.0677 46.4336 57.0735 46.4276C57.0827 46.4183 57.0914 46.4084 57.1001 46.3984C57.1048 46.393 57.1097 46.3878 57.1142 46.3824C57.1239 46.3704 57.1327 46.358 57.1415 46.3456C57.1445 46.3413 57.1478 46.3372 57.1507 46.3328C57.1615 46.3167 57.1716 46.3001 57.181 46.283C57.1817 46.2819 57.1824 46.281 57.1828 46.2798C57.1928 46.2615 57.202 46.2427 57.2102 46.2233C57.2125 46.2177 57.2142 46.212 57.2164 46.2065C57.2218 46.1928 57.2271 46.1791 57.2316 46.1649C57.2345 46.1558 57.2366 46.1463 57.2392 46.1371C57.2421 46.126 57.2452 46.1151 57.2477 46.1039C57.2499 46.094 57.2513 46.0837 57.2529 46.0736C57.2544 46.0647 57.2564 46.0559 57.2575 46.0469C57.2856 45.8222 57.8034 41.6676 58.0347 38.9811C58.035 38.9785 58.035 38.9759 58.0353 38.9733C58.1019 38.1989 58.1446 37.5468 58.1446 37.1475C58.1446 32.4073 54.288 28.5506 49.5477 28.5506ZM46.5902 29.8734H49.2957L48.9501 33.8409H46.2447L46.5902 29.8734ZM28.0783 49.6773C26.0312 49.6773 24.3658 48.0119 24.3658 45.9649C24.3658 43.9178 26.0313 42.2524 28.0783 42.2524C30.1254 42.2524 31.7908 43.9178 31.7908 45.9649C31.7908 48.0119 30.1254 49.6773 28.0783 49.6773ZM48.6657 49.6773C46.6187 49.6773 44.9534 48.0119 44.9534 45.9649C44.9534 43.9178 46.6188 42.2524 48.6657 42.2524C50.7129 42.2524 52.3783 43.9178 52.3783 45.9649C52.3783 48.0119 50.7129 49.6773 48.6657 49.6773ZM56.0165 45.3033H53.6564C53.3313 42.8384 51.2182 40.9294 48.6659 40.9294C46.1138 40.9294 44.0007 42.8385 43.6757 45.3033H33.0686C32.7436 42.8384 30.6305 40.9294 28.0783 40.9294C25.5262 40.9294 23.4129 42.8385 23.0879 45.3033H20.8709L21.4263 39.5717H45.1392V39.572C45.1395 39.572 45.1398 39.572 45.1401 39.572C45.1623 39.572 45.1842 39.5708 45.2059 39.5686C45.21 39.5682 45.2139 39.5674 45.218 39.5668C45.2353 39.5648 45.2525 39.5623 45.2694 39.559C45.2767 39.5575 45.2839 39.5555 45.2911 39.5537C45.3043 39.5505 45.3175 39.5474 45.3304 39.5436C45.3392 39.5409 45.3476 39.5377 45.3562 39.5347C45.3673 39.5309 45.3784 39.5271 45.3891 39.5227C45.3984 39.5189 45.4073 39.5146 45.4163 39.5104C45.4261 39.5059 45.4359 39.5014 45.4453 39.4965C45.4543 39.4917 45.4631 39.4866 45.472 39.4815C45.4811 39.4762 45.4901 39.4708 45.4989 39.4652C45.5075 39.4596 45.5156 39.4538 45.5238 39.448C45.5325 39.4418 45.541 39.4355 45.5494 39.4288C45.557 39.4228 45.5645 39.4165 45.5719 39.4101C45.5803 39.4028 45.5885 39.3954 45.5964 39.3878C45.6031 39.3813 45.6098 39.3747 45.6164 39.3679C45.6243 39.3596 45.632 39.3511 45.6395 39.3423C45.6455 39.3355 45.6513 39.3286 45.6569 39.3215C45.6642 39.3123 45.6712 39.3028 45.6781 39.2931C45.6833 39.2859 45.6883 39.2787 45.6932 39.2713C45.6997 39.2613 45.7059 39.2511 45.7118 39.2407C45.7163 39.2329 45.7208 39.2252 45.7249 39.2172C45.7305 39.2068 45.7352 39.1962 45.7402 39.1856C45.7441 39.177 45.7481 39.1686 45.7516 39.1598C45.7559 39.1494 45.7596 39.1388 45.7633 39.1281C45.7666 39.1186 45.77 39.1092 45.773 39.0995C45.7759 39.0893 45.7782 39.0788 45.7809 39.0684C45.7835 39.0579 45.7863 39.0475 45.7883 39.0368C45.7903 39.0264 45.7916 39.0158 45.7931 39.0053C45.7947 38.9943 45.7966 38.9836 45.7976 38.9725C45.7978 38.9709 45.7982 38.9694 45.7983 38.9678L46.1297 35.1631H49.5475C51.5736 35.1631 52.4874 36.2129 53.4548 37.3244C54.253 38.2415 55.1442 39.2648 56.659 39.5144C56.4666 41.5485 56.1556 44.1599 56.0165 45.3033ZM56.772 38.1891C55.7894 37.9888 55.1847 37.298 54.4523 36.4564C53.5363 35.4041 52.418 34.1198 50.2742 33.8805L50.6163 29.9526C54.1224 30.4711 56.822 33.4997 56.822 37.1477C56.822 37.3956 56.8034 37.7557 56.772 38.1891Z" fill="#029489" stroke="#029489" stroke-width="2.00001" mask="url(#path-2-inside-1)"/>
<path d="M26.1543 45.9658C26.1543 44.9049 27.0182 44.041 28.0791 44.041C29.1399 44.041 30.0038 44.9049 30.0038 45.9658C30.0038 47.0267 29.1399 47.8905 28.0791 47.8905C27.0182 47.8905 26.1543 47.0267 26.1543 45.9658ZM26.4769 45.9658C26.4769 46.8497 27.1951 47.5679 28.0791 47.5679C28.9629 47.5679 29.6812 46.8497 29.6812 45.9658C29.6812 45.0819 28.963 44.3636 28.0791 44.3636C27.1951 44.3636 26.4769 45.0819 26.4769 45.9658Z" fill="#029489" stroke="#029489"/>
<path d="M46.7412 45.9658C46.7412 44.9049 47.6051 44.041 48.666 44.041C49.7268 44.041 50.5907 44.9049 50.5907 45.9658C50.5907 47.0267 49.7268 47.8905 48.666 47.8905C47.6051 47.8905 46.7412 47.0267 46.7412 45.9658ZM47.0638 45.9658C47.0638 46.8497 47.782 47.5679 48.666 47.5679C49.5499 47.5679 50.2681 46.8497 50.2681 45.9658C50.2681 45.0819 49.5499 44.3636 48.666 44.3636C47.782 44.3636 47.0638 45.0819 47.0638 45.9658Z" fill="#029489" stroke="#029489"/>
<path d="M16.0275 29.0508H19.2605C19.3496 29.0508 19.4218 29.123 19.4218 29.2121C19.4218 29.3012 19.3496 29.3734 19.2605 29.3734H16.0275C15.9384 29.3734 15.8662 29.3012 15.8662 29.2121C15.8662 29.123 15.9384 29.0508 16.0275 29.0508Z" fill="#029489" stroke="#029489"/>
</svg>
