<svg width="72" height="72" viewBox="0 0 72 72" fill="none" xmlns="http://www.w3.org/2000/svg">
<circle cx="36" cy="36" r="34.5" stroke="#029489" stroke-width="3"/>
<path d="M35.5 30.1364C32 30.1364 29.1364 33 29.1364 36.5C29.1364 40 32 42.8636 35.5 42.8636C39 42.8636 41.8636 40 41.8636 36.5C41.8636 33 39 30.1364 35.5 30.1364ZM49.6591 34.9091C48.8636 28.2273 43.6136 22.9773 37.0909 22.3409V19H33.9091V22.3409C27.2273 22.9773 21.9773 28.2273 21.3409 34.9091H18V38.0909H21.3409C22.1364 44.7727 27.3864 50.0227 33.9091 50.6591V54H37.0909V50.6591C43.7727 49.8636 49.0227 44.6136 49.6591 38.0909H53V34.9091H49.6591ZM35.5 47.6364C29.2955 47.6364 24.3636 42.7045 24.3636 36.5C24.3636 30.2955 29.2955 25.3636 35.5 25.3636C41.7045 25.3636 46.6364 30.2955 46.6364 36.5C46.6364 42.7045 41.7045 47.6364 35.5 47.6364Z" fill="#029489"/>
</svg>
