<svg width="29" height="29" viewBox="0 0 29 29" fill="none" xmlns="http://www.w3.org/2000/svg">
<circle cx="14.5" cy="14.5" r="13.5" stroke="#029489" stroke-width="2"/>
<path d="M21.9982 9.94682L14.7909 6.46745C14.727 6.43663 14.6526 6.43663 14.5887 6.46745L7.38142 9.94682C7.30106 9.98561 7.25 10.067 7.25 10.1562V18.6061C7.25 18.6954 7.30106 18.7767 7.38142 18.8155L14.5887 22.2949C14.6206 22.3103 14.6552 22.318 14.6898 22.318C14.7244 22.318 14.7589 22.3103 14.7909 22.2949L21.9982 18.8155C22.0785 18.7767 22.1296 18.6954 22.1296 18.6061V10.1563C22.1296 10.067 22.0785 9.98564 21.9982 9.94682ZM14.6898 6.93507L21.3622 10.1562L19.428 11.09C19.4158 11.0806 19.4029 11.072 19.3887 11.0652L12.7615 7.86595L14.6898 6.93507ZM12.2364 8.12885L18.8991 11.3453L17.5345 12.0041L10.8746 8.78894L12.2364 8.12885ZM19.055 11.7864V14.2216L17.7804 14.837V12.4018L19.055 11.7864ZM21.6645 18.4602L14.9223 21.715V13.7815L16.5306 13.0051C16.6462 12.9493 16.6947 12.8103 16.6389 12.6946C16.583 12.579 16.444 12.5305 16.3284 12.5864L14.6898 13.3774L14.0451 13.0661C13.9294 13.0102 13.7904 13.0588 13.7346 13.1744C13.6787 13.2901 13.7272 13.4291 13.8429 13.4849L14.4573 13.7815V21.715L7.71505 18.4602V10.5267L12.8492 13.0052C12.8818 13.021 12.9162 13.0284 12.9501 13.0284C13.0365 13.0284 13.1196 12.98 13.1597 12.8969C13.2155 12.7813 13.167 12.6423 13.0514 12.5864L8.01736 10.1562L10.3273 9.04109L17.3121 12.4131C17.3131 12.4145 17.3143 12.4158 17.3153 12.4172V15.2075C17.3153 15.2875 17.3565 15.3619 17.4243 15.4044C17.4619 15.428 17.5048 15.44 17.5479 15.44C17.5824 15.44 17.6169 15.4323 17.649 15.4169L19.3887 14.577C19.469 14.5382 19.5201 14.4569 19.5201 14.3676V11.562L21.6645 10.5267V18.4602Z" fill="#029489"/>
<path d="M9.59644 17.524L8.53876 17.0134C8.42305 16.9575 8.2841 17.0061 8.22826 17.1217C8.17242 17.2374 8.22091 17.3764 8.33656 17.4322L9.39423 17.9428C9.42682 17.9586 9.46126 17.966 9.49515 17.966C9.58159 17.966 9.66461 17.9176 9.7047 17.8345C9.76057 17.7189 9.71208 17.5799 9.59644 17.524Z" fill="#029489"/>
<path d="M10.5713 16.8917L8.54167 15.9119C8.426 15.856 8.28701 15.9045 8.23117 16.0202C8.17536 16.1358 8.22385 16.2748 8.3395 16.3307L10.3691 17.3105C10.4017 17.3262 10.4362 17.3337 10.47 17.3337C10.5565 17.3337 10.6395 17.2853 10.6796 17.2022C10.7354 17.0865 10.6869 16.9475 10.5713 16.8917Z" fill="#029489"/>
</svg>
