<svg width="72" height="72" viewBox="0 0 72 72" fill="none" xmlns="http://www.w3.org/2000/svg">
<circle cx="36" cy="36" r="34.5" stroke="#029489" stroke-width="3"/>
<g clip-path="url(#clip0)">
<path d="M35.6329 24.9844C32.7435 24.9844 30.3916 27.3362 30.3916 30.2257C30.3916 33.1152 32.7435 35.4671 35.6329 35.4671C38.5224 35.4671 40.8743 33.1152 40.8743 30.2257C40.8743 27.3362 38.5224 24.9844 35.6329 24.9844ZM35.6329 33.9695C33.5686 33.9695 31.8891 32.2901 31.8891 30.2257C31.8891 28.1614 33.5686 26.4819 35.6329 26.4819C37.6973 26.4819 39.3768 28.1614 39.3768 30.2257C39.3768 32.2901 37.6973 33.9695 35.6329 33.9695Z" fill="#029489"/>
<path d="M45.6542 20.2058C42.9422 17.4938 39.3361 16 35.501 16C31.665 16 28.0598 17.4938 25.3477 20.2058C20.3288 25.224 19.7051 34.6659 23.997 40.3865L35.501 57L46.9877 40.4097C51.2969 34.6659 50.6731 25.224 45.6542 20.2058ZM45.7732 39.5344L35.501 54.3688L25.2122 39.5111C21.3194 34.3207 21.8772 25.7938 26.4072 21.2646C28.8362 18.8356 32.0656 17.4975 35.501 17.4975C38.9363 17.4975 42.1657 18.8356 44.5954 21.2646C49.1254 25.7938 49.6833 34.3207 45.7732 39.5344Z" fill="#029489"/>
</g>
<defs>
<clipPath id="clip0">
<rect x="15" y="16" width="41" height="41" fill="white"/>
</clipPath>
</defs>
</svg>
